<svg width="48" height="48" viewBox="0 0 48 48" fill="none" xmlns="http://www.w3.org/2000/svg">
<path d="M12.8576 4.82605C13.4024 4.2019 13.338 3.25434 12.7138 2.70962C12.0897 2.16489 11.1421 2.22928 10.5974 2.85343L8.01376 5.81377C6.54823 7.49298 5.71977 9.63401 5.6733 11.8623L5.55994 17.2976C5.54266 18.1259 6.20009 18.8113 7.02833 18.8286C7.85658 18.8459 8.54201 18.1884 8.55929 17.3602L8.67265 11.9249C8.70444 10.4002 9.27128 8.93533 10.274 7.78639L12.8576 4.82605Z" fill="white"/>
<path fill-rule="evenodd" clip-rule="evenodd" d="M12.474 15.4016C12.7518 10.9601 16.435 7.50012 20.8852 7.50012H22V6.00013C22 4.89556 22.8954 4.00013 24 4.00013C25.1046 4.00013 26 4.89556 26 6.00013V7.50012H27.1148C31.565 7.50012 35.2482 10.9601 35.5259 15.4016L35.9679 22.4685C36.1365 25.1629 37.0411 27.7594 38.5832 29.9753C39.9765 31.9774 38.7361 34.7425 36.3142 35.0332L29.5 35.8509V38.0001C29.5 41.0377 27.0376 43.5001 24 43.5001C20.9624 43.5001 18.5 41.0377 18.5 38.0001V35.8509L11.6857 35.0332C9.26388 34.7426 8.02344 31.9774 9.41681 29.9753C10.9589 27.7594 11.8635 25.1629 12.032 22.4685L12.474 15.4016ZM20.8852 10.5001C18.0192 10.5001 15.6471 12.7285 15.4682 15.5889L15.0262 22.6558C14.8234 25.8981 13.7349 29.0225 11.8792 31.689C11.7785 31.8337 11.8681 32.0335 12.0432 32.0545L19.5185 32.9516C22.4955 33.3088 25.5045 33.3088 28.4815 32.9516L35.9568 32.0545C36.1319 32.0335 36.2215 31.8337 36.1208 31.689C34.2651 29.0225 33.1766 25.8981 32.9738 22.6558L32.5318 15.5889C32.3529 12.7285 29.9808 10.5001 27.1148 10.5001H20.8852ZM24 40.5001C22.6193 40.5001 21.5 39.3808 21.5 38.0001V36.5001H26.5V38.0001C26.5 39.3808 25.3807 40.5001 24 40.5001Z" fill="white"/>
<path d="M35.2862 2.70962C34.662 3.25434 34.5976 4.2019 35.1424 4.82605L37.726 7.78639C38.7287 8.93533 39.2956 10.4002 39.3274 11.9249L39.4407 17.3602C39.458 18.1884 40.1434 18.8459 40.9717 18.8286C41.7999 18.8113 42.4573 18.1259 42.4401 17.2976L42.3267 11.8623C42.2802 9.63401 41.4518 7.49298 39.9862 5.81377L37.4026 2.85343C36.8579 2.22928 35.9103 2.16489 35.2862 2.70962Z" fill="white"/>
</svg>
